<svg width="20" height="20" viewBox="0 0 20 20" xmlns="http://www.w3.org/2000/svg"><title>icon_instagramm</title><path d="M10 1.802c2.67 0 2.987.01 4.042.058 2.71.123 3.976 1.409 4.099 4.099.048 1.054.058 1.371.058 4.041 0 2.671-.01 2.987-.058 4.041-.124 2.688-1.387 3.976-4.099 4.099-1.055.048-1.37.058-4.042.058-2.67 0-2.987-.01-4.041-.058-2.717-.124-3.976-1.416-4.099-4.1-.048-1.054-.058-1.37-.058-4.041 0-2.67.011-2.986.058-4.041.124-2.689 1.387-3.976 4.099-4.099C7.014 1.811 7.33 1.801 10 1.801zM10 0C7.284 0 6.944.012 5.878.06 2.246.227.228 2.242.061 5.877.012 6.945 0 7.285 0 10c0 2.716.012 3.057.06 4.123.167 3.632 2.182 5.65 5.817 5.817 1.068.048 1.408.06 4.123.06 2.716 0 3.057-.012 4.123-.06 3.628-.167 5.652-2.182 5.816-5.817.049-1.067.061-1.408.061-4.123 0-2.716-.012-3.056-.06-4.122-.163-3.628-2.181-5.65-5.816-5.817C13.056.012 12.716 0 10 0zm0 4.865a5.135 5.135 0 1 0 0 10.27 5.135 5.135 0 0 0 0-10.27zm0 8.468a3.333 3.333 0 1 1 0-6.665 3.333 3.333 0 0 1 0 6.665zm5.338-9.871a1.2 1.2 0 1 0-.001 2.401 1.2 1.2 0 0 0 .001-2.401z" fill="#fff"/></svg>