<svg width="31" height="16" viewBox="0 0 31 16" xmlns="http://www.w3.org/2000/svg"><title>websee_logo</title><path d="M6.53 14.095l.003-.011 2.12-7.077-1.567-5.232C6.833.93 6.188.246 5.644.246H.785C.242.246.008.93.26 1.775l3.679 12.281c.246.822.863 1.491 1.396 1.526l-.014-.004c.482-.153.989-.758 1.208-1.482zM18.649.313l-.206-.04h-6.226c-.543 0-1.189.686-1.442 1.53L7.096 14.084l-.003.011c-.219.724-.726 1.328-1.208 1.483l.207.039 5.849-.003-.016.003.032-.003.359-.001c.544 0 1.188-.685 1.441-1.53l3.679-12.281c.219-.729.727-1.336 1.211-1.49zM30.292.281h-4.861c-.543 0-1.188.686-1.441 1.53l-3.679 12.28-.004.014c-.219.723-.726 1.327-1.207 1.48l.206.039h2.839l-.039-.003h3.589c.543 0 1.188-.685 1.441-1.53l3.679-12.28c.253-.844.018-1.53-.524-1.53zm-10.591 13.81l2.157-7.203-1.523-5.082c-.211-.705-.696-1.298-1.166-1.474-.47.176-.955.765-1.166 1.47l-2.247 7.499 1.433 4.785c.246.821.674 1.489 1.207 1.526l.093-.028c.482-.153.988-.758 1.207-1.48l.004-.014z" fill="#AFB7C1"/></svg>